<svg width="1406" height="618" viewBox="0 0 1406 618" fill="none" xmlns="http://www.w3.org/2000/svg">
<g filter="url(#filter0_d_62_25)">
<path d="M143.221 352.521H164.9V547.199H247.664V568H143.221V352.521ZM360.765 404.523C385.277 404.523 405.589 413.41 421.703 431.184C436.351 447.395 443.675 466.584 443.675 488.752C443.675 511.018 435.912 530.5 420.384 547.199C404.955 563.801 385.082 572.102 360.765 572.102C336.351 572.102 316.38 563.801 300.853 547.199C285.423 530.5 277.709 511.018 277.709 488.752C277.709 466.682 285.033 447.541 299.681 431.33C315.795 413.459 336.156 404.523 360.765 404.523ZM360.765 424.592C343.773 424.592 329.173 430.891 316.966 443.488C304.759 456.086 298.656 471.32 298.656 489.191C298.656 500.715 301.439 511.457 307.005 521.418C312.572 531.379 320.091 539.094 329.564 544.562C339.037 549.934 349.437 552.619 360.765 552.619C372.093 552.619 382.494 549.934 391.966 544.562C401.439 539.094 408.959 531.379 414.525 521.418C420.091 511.457 422.875 500.715 422.875 489.191C422.875 471.32 416.722 456.086 404.418 443.488C392.211 430.891 377.66 424.592 360.765 424.592ZM554.433 347.102V367.17C546.913 363.947 540.468 362.336 535.097 362.336C531.093 362.336 527.773 363.166 525.136 364.826C522.499 366.389 520.839 368.244 520.155 370.393C519.472 372.443 519.13 378.01 519.13 387.092V408.625H552.382V426.203H518.984V568H498.476V426.203H477.529V408.625H498.476V383.723C498.476 372.297 499.501 364.143 501.552 359.26C503.7 354.377 507.265 350.471 512.245 347.541C517.323 344.514 523.427 343 530.556 343C537.196 343 545.155 344.367 554.433 347.102ZM607.915 349.445H628.569V408.625H661.089V426.203H628.569V568H607.915V426.203H579.936V408.625H607.915V349.445ZM782.262 568L812.877 352.521H816.393L903.99 529.328L990.709 352.521H994.225L1025.13 568H1003.89L982.799 413.898L906.627 568H901.207L824.01 412.727L803.062 568H782.262ZM1230.08 408.625V568H1209.86V540.607C1201.27 551.057 1191.6 558.918 1180.86 564.191C1170.22 569.465 1158.55 572.102 1145.85 572.102C1123.29 572.102 1104.01 563.947 1087.99 547.639C1072.07 531.232 1064.11 511.311 1064.11 487.873C1064.11 464.924 1072.17 445.295 1088.28 428.986C1104.4 412.678 1123.78 404.523 1146.44 404.523C1159.52 404.523 1171.34 407.307 1181.89 412.873C1192.53 418.439 1201.86 426.789 1209.86 437.922V408.625H1230.08ZM1148.05 424.299C1136.62 424.299 1126.08 427.131 1116.41 432.795C1106.74 438.361 1099.03 446.223 1093.26 456.379C1087.6 466.535 1084.77 477.277 1084.77 488.605C1084.77 499.836 1087.65 510.578 1093.41 520.832C1099.17 531.086 1106.89 539.094 1116.55 544.855C1126.32 550.52 1136.77 553.352 1147.9 553.352C1159.13 553.352 1169.78 550.52 1179.84 544.855C1189.89 539.191 1197.61 531.525 1202.98 521.857C1208.45 512.189 1211.18 501.301 1211.18 489.191C1211.18 470.734 1205.08 455.305 1192.87 442.902C1180.76 430.5 1165.82 424.299 1148.05 424.299ZM1265.1 408.625H1289.71L1331.9 467.658L1374.09 408.625H1398.7L1344.21 484.357L1405.58 568H1380.68L1331.9 501.057L1283.85 568H1259.39L1319.74 484.357L1265.1 408.625Z" fill="#E8FFFB"/>
<line x1="8.00017" y1="610.497" x2="128" y2="610.5" stroke="#E8FFFB" stroke-width="15"/>
<line x1="16" y1="618" x2="16" stroke="#E8FFFB" stroke-width="16"/>
<line x1="626" y1="8" x2="24" y2="8" stroke="#E8FFFB" stroke-width="16"/>
<line x1="618" x2="618" y2="308" stroke="#E8FFFB" stroke-width="16"/>
</g>
<defs>
<filter id="filter0_d_62_25" x="0" y="0" width="1405.58" height="618" filterUnits="userSpaceOnUse" color-interpolation-filters="sRGB">
<feFlood flood-opacity="0" result="BackgroundImageFix"/>
<feColorMatrix in="SourceAlpha" type="matrix" values="0 0 0 0 0 0 0 0 0 0 0 0 0 0 0 0 0 0 127 0" result="hardAlpha"/>
<feOffset dx="-8"/>
<feComposite in2="hardAlpha" operator="out"/>
<feColorMatrix type="matrix" values="0 0 0 0 0.866667 0 0 0 0 0.854902 0 0 0 0 0.517647 0 0 0 0.1 0"/>
<feBlend mode="normal" in2="BackgroundImageFix" result="effect1_dropShadow_62_25"/>
<feBlend mode="normal" in="SourceGraphic" in2="effect1_dropShadow_62_25" result="shape"/>
</filter>
</defs>
</svg>
